<svg width="153" height="107" viewBox="0 0 153 107" fill="none" xmlns="http://www.w3.org/2000/svg">
<path d="M142.636 100.771C142.595 102.698 142.336 104.608 141.866 106.445C141.856 106.488 141.845 106.53 141.833 106.573H138.961C138.964 106.534 138.967 106.492 138.97 106.445C139.161 103.702 138.067 87.2052 136.747 84.35C136.862 84.5816 142.859 92.0542 142.636 100.771Z" fill="#F1F1F1"/>
<path d="M142.421 106.445C142.397 106.488 142.372 106.531 142.346 106.573H140.191C140.207 106.536 140.226 106.494 140.248 106.445C140.604 105.645 141.658 103.252 142.636 100.771C143.687 98.1044 144.652 95.3371 144.571 94.3355C144.596 94.5613 145.323 101.448 142.421 106.445Z" fill="#F1F1F1"/>
<path d="M7.95017 102.264C7.98096 103.695 8.17344 105.114 8.52195 106.478C8.52967 106.51 8.53825 106.541 8.5466 106.573H10.6802C10.6779 106.544 10.6756 106.513 10.6734 106.478C10.5311 104.441 11.3438 92.1886 12.3245 90.0681C12.2386 90.2401 7.78475 95.7899 7.95017 102.264Z" fill="#F1F1F1"/>
<path d="M8.11036 106.478C8.12821 106.51 8.14676 106.541 8.16577 106.573H9.76642C9.75429 106.546 9.74023 106.514 9.72393 106.478C9.45952 105.884 8.67689 104.106 7.95042 102.264C7.17003 100.283 6.45346 98.2281 6.51381 97.4842C6.4951 97.6519 5.95486 102.766 8.11036 106.478Z" fill="#F1F1F1"/>
<path d="M112.185 75.0549C96.071 66.5475 81.4923 66.8708 67.7604 72.0634C46.6024 67.4601 32.1142 68.1724 22.8209 75.0549V53.687H112.185V75.0549Z" fill="#CBCBCB"/>
<path d="M112.185 69.1787C97.3394 60.7988 82.5116 60.2578 67.4602 69.1787C52.0439 63.6491 37.1408 63.7069 22.7351 69.1787V4.22017C38.0512 -1.47459 52.9498 -1.33775 67.4602 4.22017C82.7878 -1.31855 97.7096 -1.49421 112.185 4.22017V69.1787Z" fill="#E5E5E5"/>
<path d="M26.7583 12.2814L26.2589 10.6892C26.4546 10.5939 31.1315 8.34151 37.9952 7.19257C44.341 6.13012 53.7954 5.87648 62.7999 10.7L62.2579 12.2705C53.5544 7.60835 44.3796 7.85385 38.2153 8.88051C31.5058 9.99826 26.805 12.2587 26.7583 12.2814Z" fill="white"/>
<path d="M26.7583 18.2645L26.2589 16.6722C26.4546 16.5769 31.1315 14.3245 37.9952 13.1756C44.341 12.1132 53.7954 11.8596 62.7999 16.683L62.2579 18.2535C53.5544 13.5914 44.3796 13.8367 38.2153 14.8635C31.5058 15.9813 26.805 18.2417 26.7583 18.2645Z" fill="white"/>
<path d="M26.7583 24.2475L26.2589 22.6552C26.4546 22.56 31.1315 20.3076 37.9952 19.1586C44.341 18.0962 53.7954 17.8425 62.7999 22.6661L62.2579 24.2365C53.5544 19.5744 44.3796 19.8197 38.2153 20.8466C31.5058 21.9643 26.805 24.2248 26.7583 24.2475Z" fill="white"/>
<path d="M26.7583 30.2305L26.2589 28.6383C26.4546 28.543 31.1315 26.2906 37.9952 25.1417C44.341 24.0794 53.7954 23.8255 62.7999 28.6491L62.2579 30.2196C53.5544 25.5574 44.3796 25.8028 38.2153 26.8296C31.5058 27.9473 26.805 30.2078 26.7583 30.2305Z" fill="white"/>
<path d="M26.7583 36.2136L26.2589 34.6213C26.4546 34.526 31.1315 32.2736 37.9952 31.1247C44.341 30.0622 53.7954 29.8086 62.7999 34.6321L62.2579 36.2026C53.5544 31.5404 44.3796 31.7859 38.2153 32.8126C31.5058 33.9304 26.805 36.1908 26.7583 36.2136Z" fill="white"/>
<path d="M26.7583 42.1966L26.2589 40.6043C26.4546 40.509 31.1315 38.2566 37.9952 37.1077C44.341 36.0455 53.7954 35.7916 62.7999 40.6151L62.2579 42.1856C53.5544 37.5234 44.3796 37.769 38.2153 38.7956C31.5058 39.9134 26.805 42.1738 26.7583 42.1966Z" fill="white"/>
<path d="M71.5262 54.8037L71.0269 53.2114C71.2226 53.1162 75.8995 50.8638 82.7632 49.7148C89.1089 48.6526 98.5633 48.3987 107.568 53.2223L107.026 54.7927C98.3223 50.1305 89.1475 50.3761 82.9833 51.4028C76.2738 52.5205 71.5729 54.7809 71.5262 54.8037Z" fill="#845EC2"/>
<path d="M71.1051 43.3211V10.6432L71.5866 10.4558C83.7895 5.70716 95.9331 5.7081 107.68 10.4586L108.154 10.6504V43.2776L107.226 42.841C95.0016 37.0934 83.168 37.09 72.054 42.8309L71.1051 43.3211ZM89.2118 36.8145C94.9553 36.8145 100.812 38.1483 106.782 40.8157V11.8955C95.6135 7.50768 84.0763 7.51008 72.4773 11.9025V40.7761C77.8068 38.1603 83.4836 36.8164 89.2118 36.8145V36.8145Z" fill="white"/>
<path d="M106.811 53.9569L106.99 48.5186L113.156 33.247C113.33 32.8129 113.613 32.4618 113.963 32.2477C114.177 32.1147 114.41 32.0362 114.649 32.0168C114.887 31.9974 115.127 32.0374 115.353 32.1346C115.615 32.2471 115.852 32.4335 116.047 32.6791C116.242 32.9248 116.388 33.2231 116.475 33.5508C116.512 33.6923 116.538 33.838 116.553 33.9858C116.597 34.4243 116.534 34.8691 116.374 35.2633L110.2 50.5555L106.811 53.9569Z" fill="#845EC2"/>
<path d="M114.731 32.1193L108.038 48.6965L107.528 48.3768L114.001 32.3436C114.228 32.2021 114.477 32.1255 114.731 32.1193Z" fill="#3F3D56"/>
<path d="M116.468 33.9993L110.03 49.9447L109.52 49.625L116.199 33.0821C116.281 33.2382 116.346 33.407 116.393 33.5843C116.429 33.7193 116.454 33.8583 116.468 33.9993V33.9993Z" fill="#3F3D56"/>
<path d="M115.827 32.5764L109.06 49.337L108.55 49.0172L115.325 32.2357C115.397 32.2665 115.468 32.3034 115.536 32.3462C115.639 32.4108 115.736 32.488 115.827 32.5764V32.5764Z" fill="#3F3D56"/>
<path d="M107.585 53.0432L106.904 53.7264L106.961 51.9252C107.195 52.0263 107.448 52.4647 107.585 53.0432Z" fill="#3F3D56"/>
<path d="M65.5224 107H0.171525C0.126033 107 0.0824054 106.977 0.0502383 106.937C0.0180712 106.897 0 106.843 0 106.786C0 106.73 0.0180712 106.675 0.0502383 106.635C0.0824054 106.595 0.126033 106.573 0.171525 106.573H65.5224C65.5679 106.573 65.6115 106.595 65.6437 106.635C65.6759 106.675 65.6939 106.73 65.6939 106.786C65.6939 106.843 65.6759 106.897 65.6437 106.937C65.6115 106.977 65.5679 107 65.5224 107Z" fill="#CBCBCB"/>
<path d="M152.828 107H87.4776C87.4321 107 87.3884 106.977 87.3563 106.937C87.3241 106.897 87.306 106.843 87.306 106.786C87.306 106.73 87.3241 106.675 87.3563 106.635C87.3884 106.595 87.4321 106.573 87.4776 106.573H152.828C152.874 106.573 152.918 106.595 152.95 106.635C152.982 106.675 153 106.73 153 106.786C153 106.843 152.982 106.897 152.95 106.937C152.918 106.977 152.874 107 152.828 107Z" fill="#CBCBCB"/>
<path d="M67.6317 4.22015H67.2887V68.9732H67.6317V4.22015Z" fill="#CBCBCB"/>
</svg>
